<?xml version="1.0" standalone="no"?>
<!DOCTYPE svg PUBLIC "-//W3C//DTD SVG 20010904//EN"
 "http://www.w3.org/TR/2001/REC-SVG-20010904/DTD/svg10.dtd">
<svg version="1.0" xmlns="http://www.w3.org/2000/svg"
 width="1118.000000pt" height="500.000000pt" viewBox="0 0 1118.000000 500.000000"
 preserveAspectRatio="xMidYMid meet">

<g transform="translate(0.000000,500.000000) scale(0.100000,-0.100000)"
fill="#000000" stroke="none">
<path d="M0 2500 l0 -2500 1370 0 1370 0 3 188 2 187 3 -187 2 -188 4215 0
4215 0 0 2500 0 2500 -5590 0 -5590 0 0 -2500z m2328 929 c2 -15 -4 -32 -14
-40 -16 -13 -16 -12 -4 7 7 12 10 29 7 38 -6 15 -31 16 -262 14 -140 -2 -255
0 -255 5 0 4 118 6 263 5 l262 -3 3 -26z m-493 -185 c-48 -8 -115 -9 -115 -2
0 5 30 7 68 7 37 -1 58 -3 47 -5z m574 -26 c-1 -30 -2 -31 -8 -8 -6 22 -14 26
-66 31 l-60 6 68 1 67 2 -1 -32z m21 -138 c33 0 60 -3 60 -7 0 -5 -29 -6 -65
-5 l-65 4 2 61 2 62 3 -57 4 -58 59 0z m8173 83 c-7 -2 -21 -2 -30 0 -10 3 -4
5 12 5 17 0 24 -2 18 -5z m-8833 -82 c0 -5 -31 -11 -70 -13 -38 -2 -66 0 -62
4 4 4 34 9 67 11 33 2 61 4 63 5 1 1 2 -2 2 -7z m8698 -8 c-10 -2 -26 -2 -35
0 -10 3 -2 5 17 5 19 0 27 -2 18 -5z m270 0 c-10 -2 -26 -2 -35 0 -10 3 -2 5
17 5 19 0 27 -2 18 -5z m-8228 -203 c32 0 61 -3 63 -7 3 -5 -26 -7 -64 -5
l-69 4 2 81 2 82 3 -77 4 -78 59 0z m-845 -6 c-48 -8 -115 -9 -115 -2 0 5 30
7 68 7 37 -1 58 -3 47 -5z m935 -204 l60 0 -1 -32 c-2 -31 -2 -31 -6 -5 -4 26
-7 27 -64 27 l-59 0 2 83 2 82 3 -77 4 -78 59 0z m-1435 -50 c27 -27 47 -50
44 -50 -3 0 -27 23 -54 50 -27 28 -47 50 -44 50 3 0 27 -22 54 -50z m420 44
c-48 -8 -115 -9 -115 -2 0 5 30 7 68 7 37 -1 58 -3 47 -5z m1120 -204 l85 0
-1 -32 c-2 -31 -2 -31 -6 -5 -4 27 -4 27 -89 27 l-84 0 2 83 2 82 3 -77 4 -78
84 0z m-1464 83 c13 -16 12 -17 -3 -4 -10 7 -18 15 -18 17 0 8 8 3 21 -13z
m-951 -100 l85 -88 -87 85 -88 85 -87 -85 -88 -85 85 88 c46 48 87 87 90 87 3
0 44 -39 90 -87z m925 58 c3 -5 2 -12 -3 -15 -5 -3 -9 1 -9 9 0 17 3 19 12 6z
m218 -48 c-81 -4 -83 -4 -83 -29 0 -14 -4 -23 -9 -20 -5 4 -8 14 -6 24 2 9 4
20 4 25 1 4 40 6 89 5 l87 -2 -82 -3z m-283 -26 c0 -2 -10 -12 -22 -23 l-23
-19 19 23 c18 21 26 27 26 19z m-932 -16 c16 12 16 12 0 -6 -18 -19 -18 -19
-35 0 -17 18 -17 18 0 6 14 -11 20 -11 35 0z m771 2 c14 11 14 10 2 -6 -10
-13 -17 -15 -27 -6 -8 6 -14 14 -14 17 0 3 5 1 12 -6 9 -9 15 -9 27 1z m1774
-21 c-10 -6 -13 -104 -16 -413 l-2 -404 -3 413 c-2 387 -1 412 16 412 12 0 13
-3 5 -8z m-1683 -35 c0 -2 -10 -12 -22 -23 l-23 -19 19 23 c18 21 26 27 26 19z
m-932 -16 c16 12 16 12 0 -6 -18 -19 -18 -19 -35 0 -17 18 -17 18 0 6 14 -11
20 -11 35 0z m257 -11 c10 -11 16 -20 13 -20 -3 0 -13 9 -23 20 -10 11 -16 20
-13 20 3 0 13 -9 23 -20z m496 3 c13 -16 12 -17 -3 -4 -17 13 -22 21 -14 21 2
0 10 -8 17 -17z m-576 -63 c10 -11 16 -20 13 -20 -3 0 -13 9 -23 20 -10 11
-16 20 -13 20 3 0 13 -9 23 -20z m658 -3 c4 3 7 4 7 0 0 -17 -20 -14 -36 6
-19 22 -19 22 2 4 11 -9 24 -14 27 -10z m-771 -1 c10 6 11 4 0 -7 -10 -11 -15
-10 -30 6 -15 17 -15 18 0 6 9 -7 23 -9 30 -5z m263 -6 c10 -11 16 -20 13 -20
-3 0 -13 9 -23 20 -10 11 -16 20 -13 20 3 0 13 -9 23 -20z m55 -55 c13 -14 21
-25 18 -25 -2 0 -15 11 -28 25 -13 14 -21 25 -18 25 2 0 15 -11 28 -25z m-275
-5 c10 -11 16 -20 13 -20 -3 0 -13 9 -23 20 -10 11 -16 20 -13 20 3 0 13 -9
23 -20z m685 17 c0 -2 -15 -16 -32 -33 l-33 -29 29 33 c28 30 36 37 36 29z
m-237 -34 c-7 -2 -19 -2 -25 0 -7 3 -2 5 12 5 14 0 19 -2 13 -5z m70 0 c-7 -2
-19 -2 -25 0 -7 3 -2 5 12 5 14 0 19 -2 13 -5z m198 -60 c13 -17 13 -17 -6 -3
-11 8 -22 16 -24 17 -2 2 0 3 6 3 6 0 17 -8 24 -17z m-511 -16 c0 -2 -19 -21
-42 -42 l-43 -40 40 43 c36 39 45 47 45 39z m580 -42 c19 -19 32 -35 29 -35
-3 0 -20 16 -39 35 -19 19 -32 35 -29 35 3 0 20 -16 39 -35z m111 -202 c13
-16 12 -17 -3 -4 -10 7 -18 15 -18 17 0 8 8 3 21 -13z m-868 -28 c-3 -9 -8
-14 -10 -11 -3 3 -2 9 2 15 9 16 15 13 8 -4z m1097 -202 c0 -8 -13 5 -110 105
l-105 107 108 -105 c59 -57 107 -106 107 -107z m-160 84 c0 -2 -10 -12 -22
-23 l-23 -19 19 23 c18 21 26 27 26 19z m-70 -71 c0 -2 -8 -10 -17 -17 -16
-13 -17 -12 -4 4 13 16 21 21 21 13z m91 -13 c13 -16 12 -17 -3 -4 -17 13 -22
21 -14 21 2 0 10 -8 17 -17z m-901 -16 c0 -1 -28 -29 -62 -62 l-63 -60 60 63
c55 58 65 67 65 59z m880 -40 c0 -2 -9 -12 -19 -21 -14 -13 -21 -14 -27 -5 -4
7 -3 10 3 6 6 -4 16 0 23 8 12 14 20 19 20 12z m91 -14 c13 -16 12 -17 -3 -4
-10 7 -18 15 -18 17 0 8 8 3 21 -13z m1436 -70 c-2 -16 -4 -3 -4 27 0 30 2 43
4 28 2 -16 2 -40 0 -55z m-1493 -12 c-2 -3 -12 3 -22 13 -16 17 -16 18 5 5 12
-7 20 -15 17 -18z m-1044 5 c0 -2 -8 -10 -17 -17 -16 -13 -17 -12 -4 4 13 16
21 21 21 13z m2537 -643 c-1 -65 -3 -14 -3 112 0 127 2 180 3 118 2 -62 2
-165 0 -230z m0 -440 c-3 -10 -5 -2 -5 17 0 19 2 27 5 18 2 -10 2 -26 0 -35z"/>
</g>
</svg>
